<?xml version="1.0" encoding="utf-8"?>
<!-- Generator: Adobe Illustrator 27.9.0, SVG Export Plug-In . SVG Version: 6.00 Build 0)  -->
<svg version="1.1" id="레이어_1" xmlns="http://www.w3.org/2000/svg" xmlns:xlink="http://www.w3.org/1999/xlink" x="0px"
	 y="0px" width="140px" height="63px" viewBox="0 0 140 63" style="enable-background:new 0 0 140 63;" xml:space="preserve">
<style type="text/css">
	.st0{fill:#CFCFCF;}
	.st1{enable-background:new    ;}
	.st2{fill:#FFFFFF;}
</style>
<g id="그룹_106" transform="translate(-28 -560)">
	<path id="빼기_3" class="st0" d="M165,623H31c-1.66,0-3-1.34-3-3v-16c4.96,0,9-5.38,9-12s-4.04-12-9-12v-17c0-1.66,1.34-3,3-3
		h134c1.66,0,3,1.34,3,3v17c-4.96,0-9,5.38-9,12s4.04,12,9,12v16C168,621.66,166.66,623,165,623z"/>
	<g class="st1">
		<path class="st2" d="M74.42,602.94c0.48,0,0.91,0.06,1.28,0.19s0.71,0.3,1,0.54l-0.36,0.55c-0.33-0.23-0.64-0.39-0.93-0.48
			c-0.29-0.09-0.62-0.13-0.99-0.13c-0.33,0-0.63,0.06-0.88,0.19c-0.26,0.12-0.47,0.3-0.65,0.52c-0.17,0.22-0.31,0.49-0.4,0.8
			c-0.09,0.31-0.14,0.65-0.14,1.03v0.92c0,0.89,0.19,1.56,0.56,1.99c0.38,0.43,0.9,0.65,1.57,0.65c0.45,0,0.84-0.07,1.15-0.21
			c0.32-0.14,0.59-0.32,0.83-0.53l0.41,0.55c-0.27,0.24-0.59,0.44-0.97,0.61c-0.38,0.17-0.86,0.25-1.43,0.25
			c-0.93,0-1.64-0.29-2.11-0.87c-0.48-0.58-0.72-1.39-0.72-2.44v-0.89c0-1.03,0.24-1.82,0.73-2.38S73.54,602.94,74.42,602.94z"/>
		<path class="st2" d="M83.76,602.94c0.45,0,0.84,0.08,1.19,0.23c0.35,0.15,0.64,0.36,0.88,0.65c0.24,0.28,0.42,0.62,0.55,1.01
			c0.13,0.4,0.19,0.84,0.19,1.33v0.99c0,0.49-0.06,0.94-0.19,1.33s-0.31,0.73-0.55,1.01c-0.24,0.28-0.53,0.5-0.88,0.64
			c-0.35,0.15-0.74,0.23-1.19,0.23s-0.84-0.08-1.19-0.23c-0.35-0.15-0.64-0.36-0.88-0.64c-0.24-0.28-0.42-0.62-0.55-1.01
			s-0.19-0.84-0.19-1.33v-0.99c0-0.49,0.06-0.94,0.18-1.33c0.12-0.4,0.3-0.74,0.54-1.01c0.24-0.28,0.54-0.5,0.88-0.65
			C82.92,603.02,83.31,602.94,83.76,602.94z M83.76,609.74c0.65,0,1.16-0.23,1.54-0.67c0.38-0.45,0.56-1.11,0.56-1.98v-0.87
			c0-0.87-0.19-1.52-0.56-1.97c-0.38-0.45-0.89-0.67-1.54-0.67s-1.16,0.22-1.54,0.67s-0.56,1.11-0.56,1.97v0.87
			c0,0.87,0.19,1.53,0.56,1.98C82.6,609.51,83.11,609.74,83.76,609.74z"/>
		<path class="st2" d="M93.58,609.74c0.63,0,1.09-0.2,1.4-0.6c0.31-0.4,0.47-1.05,0.47-1.95v-4.14h0.69v4.4c0,1-0.22,1.74-0.67,2.21
			c-0.45,0.47-1.08,0.71-1.88,0.71c-0.81,0-1.44-0.24-1.89-0.71c-0.45-0.47-0.67-1.21-0.67-2.21v-4.4h0.69v4.14
			c0,0.9,0.15,1.55,0.46,1.95C92.48,609.54,92.95,609.74,93.58,609.74z"/>
		<path class="st2" d="M100.77,603.05h2.44c0.38,0,0.72,0.05,1.01,0.16s0.53,0.25,0.72,0.43s0.34,0.4,0.43,0.66s0.15,0.53,0.15,0.82
			v0.21c0,0.29-0.05,0.57-0.16,0.82c-0.1,0.25-0.25,0.48-0.45,0.67c-0.2,0.19-0.44,0.34-0.72,0.45c-0.29,0.11-0.61,0.16-0.98,0.16
			h-1.74v2.85h-0.7V603.05z M101.47,603.68v3.1h1.57c0.62,0,1.07-0.13,1.35-0.4s0.42-0.63,0.42-1.08v-0.18
			c0-0.43-0.13-0.77-0.41-1.04c-0.27-0.27-0.69-0.4-1.25-0.4H101.47z"/>
		<path class="st2" d="M112.38,602.94c0.45,0,0.84,0.08,1.19,0.23c0.35,0.15,0.64,0.36,0.88,0.65c0.24,0.28,0.42,0.62,0.55,1.01
			c0.13,0.4,0.19,0.84,0.19,1.33v0.99c0,0.49-0.06,0.94-0.19,1.33s-0.31,0.73-0.55,1.01c-0.24,0.28-0.53,0.5-0.88,0.64
			c-0.35,0.15-0.74,0.23-1.19,0.23s-0.84-0.08-1.19-0.23c-0.35-0.15-0.64-0.36-0.88-0.64c-0.24-0.28-0.42-0.62-0.55-1.01
			s-0.19-0.84-0.19-1.33v-0.99c0-0.49,0.06-0.94,0.18-1.33c0.12-0.4,0.3-0.74,0.54-1.01c0.24-0.28,0.54-0.5,0.88-0.65
			C111.54,603.02,111.93,602.94,112.38,602.94z M112.38,609.74c0.65,0,1.16-0.23,1.54-0.67c0.38-0.45,0.56-1.11,0.56-1.98v-0.87
			c0-0.87-0.19-1.52-0.56-1.97c-0.38-0.45-0.89-0.67-1.54-0.67s-1.16,0.22-1.54,0.67s-0.56,1.11-0.56,1.97v0.87
			c0,0.87,0.19,1.53,0.56,1.98C111.22,609.51,111.73,609.74,112.38,609.74z"/>
		<path class="st2" d="M119.67,603.05h0.83l3.31,5.64c0.06,0.1,0.11,0.2,0.16,0.29s0.11,0.22,0.18,0.38v-6.31h0.67v7.21h-0.83
			l-3.32-5.66c-0.06-0.11-0.11-0.2-0.16-0.29c-0.05-0.09-0.1-0.21-0.17-0.36v6.31h-0.67V603.05z"/>
	</g>
	<g class="st1">
		<path class="st2" d="M74.42,602.94c0.48,0,0.91,0.06,1.28,0.19s0.71,0.3,1,0.54l-0.36,0.55c-0.33-0.23-0.64-0.39-0.93-0.48
			c-0.29-0.09-0.62-0.13-0.99-0.13c-0.33,0-0.63,0.06-0.88,0.19c-0.26,0.12-0.47,0.3-0.65,0.52c-0.17,0.22-0.31,0.49-0.4,0.8
			c-0.09,0.31-0.14,0.65-0.14,1.03v0.92c0,0.89,0.19,1.56,0.56,1.99c0.38,0.43,0.9,0.65,1.57,0.65c0.45,0,0.84-0.07,1.15-0.21
			c0.32-0.14,0.59-0.32,0.83-0.53l0.41,0.55c-0.27,0.24-0.59,0.44-0.97,0.61c-0.38,0.17-0.86,0.25-1.43,0.25
			c-0.93,0-1.64-0.29-2.11-0.87c-0.48-0.58-0.72-1.39-0.72-2.44v-0.89c0-1.03,0.24-1.82,0.73-2.38S73.54,602.94,74.42,602.94z"/>
		<path class="st2" d="M83.76,602.94c0.45,0,0.84,0.08,1.19,0.23c0.35,0.15,0.64,0.36,0.88,0.65c0.24,0.28,0.42,0.62,0.55,1.01
			c0.13,0.4,0.19,0.84,0.19,1.33v0.99c0,0.49-0.06,0.94-0.19,1.33s-0.31,0.73-0.55,1.01c-0.24,0.28-0.53,0.5-0.88,0.64
			c-0.35,0.15-0.74,0.23-1.19,0.23s-0.84-0.08-1.19-0.23c-0.35-0.15-0.64-0.36-0.88-0.64c-0.24-0.28-0.42-0.62-0.55-1.01
			s-0.19-0.84-0.19-1.33v-0.99c0-0.49,0.06-0.94,0.18-1.33c0.12-0.4,0.3-0.74,0.54-1.01c0.24-0.28,0.54-0.5,0.88-0.65
			C82.92,603.02,83.31,602.94,83.76,602.94z M83.76,609.74c0.65,0,1.16-0.23,1.54-0.67c0.38-0.45,0.56-1.11,0.56-1.98v-0.87
			c0-0.87-0.19-1.52-0.56-1.97c-0.38-0.45-0.89-0.67-1.54-0.67s-1.16,0.22-1.54,0.67s-0.56,1.11-0.56,1.97v0.87
			c0,0.87,0.19,1.53,0.56,1.98C82.6,609.51,83.11,609.74,83.76,609.74z"/>
		<path class="st2" d="M93.58,609.74c0.63,0,1.09-0.2,1.4-0.6c0.31-0.4,0.47-1.05,0.47-1.95v-4.14h0.69v4.4c0,1-0.22,1.74-0.67,2.21
			c-0.45,0.47-1.08,0.71-1.88,0.71c-0.81,0-1.44-0.24-1.89-0.71c-0.45-0.47-0.67-1.21-0.67-2.21v-4.4h0.69v4.14
			c0,0.9,0.15,1.55,0.46,1.95C92.48,609.54,92.95,609.74,93.58,609.74z"/>
		<path class="st2" d="M100.77,603.05h2.44c0.38,0,0.72,0.05,1.01,0.16s0.53,0.25,0.72,0.43s0.34,0.4,0.43,0.66s0.15,0.53,0.15,0.82
			v0.21c0,0.29-0.05,0.57-0.16,0.82c-0.1,0.25-0.25,0.48-0.45,0.67c-0.2,0.19-0.44,0.34-0.72,0.45c-0.29,0.11-0.61,0.16-0.98,0.16
			h-1.74v2.85h-0.7V603.05z M101.47,603.68v3.1h1.57c0.62,0,1.07-0.13,1.35-0.4s0.42-0.63,0.42-1.08v-0.18
			c0-0.43-0.13-0.77-0.41-1.04c-0.27-0.27-0.69-0.4-1.25-0.4H101.47z"/>
		<path class="st2" d="M112.38,602.94c0.45,0,0.84,0.08,1.19,0.23c0.35,0.15,0.64,0.36,0.88,0.65c0.24,0.28,0.42,0.62,0.55,1.01
			c0.13,0.4,0.19,0.84,0.19,1.33v0.99c0,0.49-0.06,0.94-0.19,1.33s-0.31,0.73-0.55,1.01c-0.24,0.28-0.53,0.5-0.88,0.64
			c-0.35,0.15-0.74,0.23-1.19,0.23s-0.84-0.08-1.19-0.23c-0.35-0.15-0.64-0.36-0.88-0.64c-0.24-0.28-0.42-0.62-0.55-1.01
			s-0.19-0.84-0.19-1.33v-0.99c0-0.49,0.06-0.94,0.18-1.33c0.12-0.4,0.3-0.74,0.54-1.01c0.24-0.28,0.54-0.5,0.88-0.65
			C111.54,603.02,111.93,602.94,112.38,602.94z M112.38,609.74c0.65,0,1.16-0.23,1.54-0.67c0.38-0.45,0.56-1.11,0.56-1.98v-0.87
			c0-0.87-0.19-1.52-0.56-1.97c-0.38-0.45-0.89-0.67-1.54-0.67s-1.16,0.22-1.54,0.67s-0.56,1.11-0.56,1.97v0.87
			c0,0.87,0.19,1.53,0.56,1.98C111.22,609.51,111.73,609.74,112.38,609.74z"/>
		<path class="st2" d="M119.67,603.05h0.83l3.31,5.64c0.06,0.1,0.11,0.2,0.16,0.29s0.11,0.22,0.18,0.38v-6.31h0.67v7.21h-0.83
			l-3.32-5.66c-0.06-0.11-0.11-0.2-0.16-0.29c-0.05-0.09-0.1-0.21-0.17-0.36v6.31h-0.67V603.05z"/>
	</g>
	<g class="st1">
		<path class="st2" d="M55.55,580.67c1.53,0,2.83,0.54,3.92,1.63c1.08,1.09,1.63,2.39,1.63,3.92c0,1.53-0.54,2.83-1.63,3.92
			c-1.09,1.08-2.39,1.63-3.92,1.63h-5.13c-0.43,0-0.79-0.15-1.09-0.45c-0.3-0.3-0.45-0.66-0.45-1.09c0-0.41,0.15-0.77,0.45-1.07
			c0.3-0.3,0.66-0.45,1.09-0.45h5.13c0.67,0,1.26-0.24,1.75-0.73c0.49-0.48,0.74-1.07,0.74-1.76s-0.25-1.28-0.74-1.76
			s-1.07-0.73-1.75-0.73h-0.97c-0.01,0-0.03,0-0.04,0H50.9c-0.69,0-1.18-0.36-1.47-1.08c-0.04-0.15-0.07-0.29-0.07-0.44v-0.02v-4.91
			c0-0.43,0.15-0.79,0.45-1.09c0.3-0.3,0.66-0.45,1.09-0.45h7.94c0.43,0,0.79,0.15,1.09,0.45c0.3,0.3,0.45,0.66,0.45,1.09
			s-0.15,0.78-0.45,1.08c-0.3,0.29-0.66,0.44-1.09,0.44h-6.42v1.87H55.55z"/>
		<path class="st2" d="M69.96,575.74c1.26,0,2.34,0.45,3.24,1.35c0.9,0.9,1.35,1.98,1.35,3.24v6.82c0,1.28-0.45,2.36-1.35,3.26
			c-0.9,0.89-1.98,1.34-3.24,1.34h-3.01c-1.28,0-2.36-0.45-3.26-1.34s-1.34-1.98-1.34-3.26v-6.82c0-1.26,0.45-2.34,1.34-3.24
			c0.89-0.9,1.98-1.35,3.26-1.35H69.96z M71.5,587.16v-6.82c0-0.42-0.15-0.79-0.45-1.09c-0.3-0.3-0.66-0.45-1.09-0.45h-3.01
			c-0.42,0-0.79,0.15-1.09,0.45c-0.3,0.3-0.45,0.66-0.45,1.09v6.82c0,0.43,0.15,0.79,0.45,1.09s0.66,0.45,1.09,0.45h3.01
			c0.42,0,0.79-0.15,1.09-0.45C71.34,587.95,71.5,587.59,71.5,587.16z"/>
		<path class="st2" d="M79.15,583.22c-0.92,0-1.71-0.33-2.36-0.98c-0.65-0.65-0.98-1.44-0.98-2.37c0-0.92,0.33-1.71,0.98-2.36
			c0.65-0.65,1.44-0.98,2.36-0.98c0.92,0,1.72,0.33,2.38,0.98c0.66,0.65,0.99,1.44,0.99,2.36c0,0.92-0.33,1.71-0.99,2.37
			C80.87,582.9,80.08,583.22,79.15,583.22z M79.31,591.56c-0.34,0.4-0.73,0.59-1.17,0.59c-0.29,0-0.56-0.08-0.81-0.24
			c-0.67-0.57-0.79-1.23-0.35-1.98l8.93-12.76c0.56-0.66,1.21-0.78,1.96-0.35c0.67,0.57,0.79,1.23,0.35,1.98L79.31,591.56z
			 M79.15,579.11c-0.42,0-0.68,0.26-0.77,0.77c0,0.43,0.26,0.69,0.77,0.79c0.44,0,0.7-0.26,0.79-0.79
			C79.94,579.45,79.68,579.2,79.15,579.11z M86.04,585.49c0.92,0,1.71,0.33,2.36,0.99c0.65,0.66,0.98,1.45,0.98,2.38
			c0,0.92-0.33,1.71-0.98,2.36s-1.44,0.98-2.36,0.98c-0.92,0-1.72-0.33-2.38-0.98c-0.66-0.65-0.99-1.44-0.99-2.36
			c0-0.92,0.33-1.72,0.99-2.38C84.32,585.82,85.11,585.49,86.04,585.49z M86.04,589.63c0.42,0,0.68-0.26,0.77-0.77
			c0-0.44-0.26-0.7-0.77-0.79c-0.44,0-0.7,0.26-0.79,0.79C85.25,589.28,85.51,589.54,86.04,589.63z"/>
		<path class="st2" d="M96.88,578.63c-0.63-0.23-0.95-0.65-0.95-1.25c0-0.35,0.12-0.65,0.37-0.9s0.55-0.37,0.9-0.37h3.15
			c0.03-0.44,0.19-0.8,0.5-1.09c0.3-0.29,0.66-0.43,1.09-0.43c0.43,0,0.79,0.14,1.09,0.43c0.3,0.29,0.47,0.65,0.5,1.09h3.15
			c0.35,0,0.65,0.12,0.9,0.37c0.25,0.25,0.37,0.55,0.37,0.9c0,0.6-0.32,1.02-0.95,1.25c0.4,0.6,0.59,1.28,0.59,2.02
			c0,1.01-0.36,1.88-1.08,2.6s-1.58,1.08-2.6,1.08h-3.96c-1.01,0-1.88-0.36-2.6-1.08c-0.72-0.72-1.08-1.58-1.08-2.6
			C96.29,579.9,96.49,579.23,96.88,578.63z M108.81,584.96c1.07,0,1.88,0.29,2.42,0.87s0.81,1.27,0.81,2.08v0.9
			c0,0.29-0.11,0.55-0.33,0.77c-0.22,0.22-0.48,0.33-0.77,0.33H99.72v0.53h11.15c0.29,0,0.55,0.09,0.77,0.27s0.34,0.42,0.37,0.71
			c0.03,0.34-0.06,0.62-0.27,0.86c-0.21,0.23-0.48,0.35-0.8,0.35H97.61c-0.31,0-0.57-0.11-0.78-0.32c-0.21-0.21-0.32-0.47-0.32-0.78
			v-2.73c0-0.31,0.11-0.57,0.32-0.79c0.21-0.22,0.47-0.33,0.78-0.33h11.2c0-0.29-0.28-0.46-0.84-0.51H97.65
			c-0.28,0-0.53-0.09-0.75-0.29c-0.22-0.19-0.35-0.43-0.4-0.73c-0.01-0.34,0.08-0.62,0.3-0.86c0.21-0.24,0.48-0.35,0.8-0.35H108.81z
			 M103.31,581.75c0.31,0,0.57-0.11,0.79-0.32s0.33-0.47,0.33-0.78s-0.11-0.57-0.33-0.79c-0.22-0.22-0.48-0.33-0.79-0.33h-2.73
			c-0.31,0-0.57,0.11-0.79,0.33c-0.22,0.22-0.33,0.48-0.33,0.79s0.11,0.57,0.33,0.78c0.22,0.21,0.48,0.32,0.79,0.32H103.31z
			 M112.31,578.16c0.4,0,0.73,0.14,1.01,0.41c0.28,0.27,0.42,0.6,0.42,1s-0.14,0.73-0.42,1.01c-0.28,0.28-0.62,0.42-1.01,0.42h-0.62
			v1.91c0,0.44-0.15,0.81-0.46,1.12c-0.31,0.31-0.68,0.46-1.12,0.46c-0.44,0-0.81-0.15-1.12-0.46c-0.31-0.31-0.46-0.68-0.46-1.12
			v-6.4c0-0.44,0.15-0.82,0.46-1.13c0.31-0.31,0.68-0.47,1.12-0.47c0.44,0,0.81,0.16,1.12,0.47c0.31,0.32,0.46,0.69,0.46,1.13v1.65
			H112.31z"/>
		<path class="st2" d="M119.17,585.64c-1.36,0-2.52-0.48-3.48-1.44c-0.95-0.96-1.43-2.12-1.43-3.47v-0.57c0-1.35,0.48-2.5,1.43-3.46
			c0.95-0.96,2.11-1.44,3.48-1.44h1.87c1.35,0,2.5,0.48,3.45,1.44c0.95,0.96,1.43,2.12,1.43,3.46v0.57c0,1.35-0.48,2.5-1.43,3.47
			c-0.95,0.96-2.11,1.44-3.45,1.44H119.17z M128.94,589.8c0.4,0,0.74,0.13,1.02,0.38c0.29,0.26,0.44,0.58,0.45,0.98
			c0,0.42-0.14,0.78-0.41,1.06s-0.61,0.42-1,0.42h-11.4c-0.81,0-1.5-0.29-2.07-0.86c-0.57-0.57-0.86-1.27-0.86-2.09v-1.96
			c0-0.44,0.16-0.82,0.47-1.13c0.31-0.31,0.69-0.47,1.13-0.47c0.44,0,0.82,0.16,1.13,0.47c0.32,0.32,0.47,0.69,0.47,1.13v1.32
			c0,0.41,0.24,0.66,0.73,0.75H128.94z M117.32,580.06v0.79c0,0.57,0.21,1.06,0.62,1.46c0.41,0.4,0.9,0.6,1.47,0.6h1.36
			c0.59,0,1.08-0.2,1.49-0.6s0.61-0.89,0.61-1.46v-0.79c0-0.57-0.2-1.06-0.61-1.46c-0.4-0.4-0.9-0.6-1.49-0.6h-1.36
			c-0.57,0-1.06,0.2-1.47,0.6C117.53,579,117.32,579.48,117.32,580.06z M130.37,585.75c0,0.44-0.16,0.82-0.47,1.13
			c-0.32,0.32-0.69,0.47-1.13,0.47c-0.44,0-0.81-0.16-1.12-0.47c-0.31-0.31-0.46-0.69-0.46-1.13v-9.24c0-0.44,0.15-0.82,0.46-1.13
			c0.31-0.31,0.68-0.47,1.12-0.47c0.44,0,0.82,0.16,1.13,0.47c0.32,0.32,0.47,0.69,0.47,1.13V585.75z"/>
		<path class="st2" d="M136.94,588.22c-0.4,0-0.73-0.14-1-0.42c-0.27-0.28-0.41-0.62-0.41-1.01v-1.89h-2.95
			c-0.35,0-0.65-0.12-0.9-0.37c-0.25-0.25-0.37-0.56-0.37-0.92c0-0.35,0.12-0.65,0.37-0.9c0.25-0.25,0.55-0.37,0.9-0.37h9.88
			c0.37,0,0.67,0.12,0.92,0.37c0.25,0.25,0.37,0.55,0.37,0.9c0,0.37-0.12,0.67-0.37,0.92c-0.25,0.25-0.56,0.37-0.92,0.37h-4.09v1.89
			c0,0.4-0.14,0.73-0.42,1.01C137.68,588.08,137.34,588.22,136.94,588.22z M140.82,581.95c-0.4,0-0.73-0.14-1-0.42
			c-0.27-0.28-0.41-0.61-0.41-0.99v-1.96c0-0.41-0.25-0.66-0.75-0.75h-5.54c-0.37,0-0.67-0.12-0.92-0.37
			c-0.25-0.25-0.37-0.55-0.37-0.9s0.12-0.66,0.37-0.91c0.25-0.26,0.56-0.39,0.92-0.39h6.16c0.82,0,1.52,0.29,2.09,0.86
			c0.57,0.57,0.86,1.27,0.86,2.09v2.33c0,0.38-0.14,0.71-0.42,0.99C141.53,581.81,141.2,581.95,140.82,581.95z M146.78,590.07
			c0.37,0,0.67,0.12,0.92,0.37c0.25,0.25,0.37,0.56,0.37,0.92c0,0.35-0.12,0.65-0.37,0.9c-0.25,0.25-0.56,0.37-0.92,0.37h-12.01
			c-0.82,0-1.52-0.29-2.09-0.86c-0.57-0.57-0.86-1.27-0.86-2.09v-2.42c0-0.38,0.14-0.71,0.42-0.99s0.61-0.42,0.99-0.42
			c0.4,0,0.73,0.14,1,0.42s0.41,0.61,0.41,0.99v2.07c0,0.4,0.25,0.64,0.75,0.73H146.78z M146.4,588.06c-0.4,0-0.73-0.14-1-0.42
			c-0.27-0.28-0.41-0.61-0.41-0.99v-4.16h-0.81c-0.4,0-0.73-0.14-1.01-0.42c-0.28-0.28-0.42-0.61-0.42-0.99
			c0-0.4,0.14-0.73,0.42-1.01c0.28-0.28,0.62-0.42,1.01-0.42H145v-3.32c0-0.4,0.13-0.73,0.41-1.01s0.61-0.42,1-0.42
			c0.4,0,0.73,0.14,1.01,0.42c0.28,0.28,0.42,0.62,0.42,1.01v10.32c0,0.38-0.14,0.71-0.42,0.99
			C147.14,587.92,146.8,588.06,146.4,588.06z"/>
	</g>
</g>
</svg>
