<?xml version="1.0" encoding="utf-8"?>
<!-- Generator: Adobe Illustrator 27.9.0, SVG Export Plug-In . SVG Version: 6.00 Build 0)  -->
<svg version="1.1" id="레이어_1" xmlns="http://www.w3.org/2000/svg" xmlns:xlink="http://www.w3.org/1999/xlink" x="0px"
	 y="0px" width="140px" height="63px" viewBox="0 0 140 63" style="enable-background:new 0 0 140 63;" xml:space="preserve">
<style type="text/css">
	.st0{fill:#FF79BF;}
	.st1{enable-background:new    ;}
	.st2{fill:#FFFFFF;}
</style>
<g id="그룹_108" transform="translate(-192 -560)">
	<path id="빼기_3" class="st0" d="M329,623H195c-1.66,0-3-1.34-3-3v-16c4.96,0,9-5.38,9-12s-4.04-12-9-12v-17c0-1.66,1.34-3,3-3
		h134c1.66,0,3,1.34,3,3v17c-4.96,0-9,5.38-9,12s4.04,12,9,12v16C332,621.66,330.66,623,329,623z"/>
	<g class="st1">
		<path class="st2" d="M214.37,588.7c0.42,0,0.79,0.15,1.09,0.45s0.45,0.66,0.45,1.07c0,0.43-0.15,0.79-0.45,1.09
			s-0.66,0.45-1.09,0.45h-5.39c-0.43,0-0.79-0.15-1.09-0.45c-0.3-0.3-0.45-0.66-0.45-1.09c0-0.41,0.15-0.77,0.45-1.07
			c0.3-0.3,0.66-0.45,1.09-0.45h1.17v-8.71c0-0.32-0.11-0.6-0.34-0.84c-0.23-0.23-0.5-0.35-0.83-0.35c-0.43,0-0.79-0.15-1.09-0.44
			c-0.3-0.29-0.45-0.65-0.45-1.08s0.15-0.79,0.45-1.09c0.3-0.3,0.66-0.45,1.09-0.45c1.16,0,2.15,0.41,2.98,1.24
			c0.83,0.83,1.24,1.83,1.24,3v8.71H214.37z"/>
		<path class="st2" d="M224.78,575.74c1.26,0,2.34,0.45,3.24,1.35c0.9,0.9,1.35,1.98,1.35,3.24v6.82c0,1.28-0.45,2.36-1.35,3.26
			c-0.9,0.89-1.98,1.34-3.24,1.34h-3.01c-1.28,0-2.36-0.45-3.26-1.34s-1.34-1.98-1.34-3.26v-6.82c0-1.26,0.45-2.34,1.34-3.24
			c0.89-0.9,1.98-1.35,3.26-1.35H224.78z M226.32,587.16v-6.82c0-0.42-0.15-0.79-0.45-1.09c-0.3-0.3-0.66-0.45-1.09-0.45h-3.01
			c-0.42,0-0.79,0.15-1.09,0.45c-0.3,0.3-0.45,0.66-0.45,1.09v6.82c0,0.43,0.15,0.79,0.45,1.09s0.66,0.45,1.09,0.45h3.01
			c0.42,0,0.79-0.15,1.09-0.45C226.17,587.95,226.32,587.59,226.32,587.16z"/>
		<path class="st2" d="M238.48,575.74c1.26,0,2.34,0.45,3.24,1.35c0.9,0.9,1.35,1.98,1.35,3.24v6.82c0,1.28-0.45,2.36-1.35,3.26
			c-0.9,0.89-1.98,1.34-3.24,1.34h-3.01c-1.28,0-2.36-0.45-3.26-1.34s-1.34-1.98-1.34-3.26v-6.82c0-1.26,0.45-2.34,1.34-3.24
			c0.89-0.9,1.98-1.35,3.26-1.35H238.48z M240.02,587.16v-6.82c0-0.42-0.15-0.79-0.45-1.09c-0.3-0.3-0.66-0.45-1.09-0.45h-3.01
			c-0.42,0-0.79,0.15-1.09,0.45c-0.3,0.3-0.45,0.66-0.45,1.09v6.82c0,0.43,0.15,0.79,0.45,1.09s0.66,0.45,1.09,0.45h3.01
			c0.42,0,0.79-0.15,1.09-0.45C239.87,587.95,240.02,587.59,240.02,587.16z"/>
		<path class="st2" d="M247.68,583.22c-0.92,0-1.71-0.33-2.36-0.98c-0.65-0.65-0.98-1.44-0.98-2.37c0-0.92,0.33-1.71,0.98-2.36
			c0.65-0.65,1.44-0.98,2.36-0.98c0.92,0,1.72,0.33,2.38,0.98c0.66,0.65,0.99,1.44,0.99,2.36c0,0.92-0.33,1.71-0.99,2.37
			C249.39,582.9,248.6,583.22,247.68,583.22z M247.83,591.56c-0.34,0.4-0.73,0.59-1.17,0.59c-0.29,0-0.56-0.08-0.81-0.24
			c-0.67-0.57-0.79-1.23-0.35-1.98l8.93-12.76c0.56-0.66,1.21-0.78,1.96-0.35c0.67,0.57,0.79,1.23,0.35,1.98L247.83,591.56z
			 M247.68,579.11c-0.42,0-0.68,0.26-0.77,0.77c0,0.43,0.26,0.69,0.77,0.79c0.44,0,0.7-0.26,0.79-0.79
			C248.47,579.45,248.21,579.2,247.68,579.11z M254.56,585.49c0.92,0,1.71,0.33,2.36,0.99c0.65,0.66,0.98,1.45,0.98,2.38
			c0,0.92-0.33,1.71-0.98,2.36s-1.44,0.98-2.36,0.98c-0.92,0-1.72-0.33-2.38-0.98c-0.66-0.65-0.99-1.44-0.99-2.36
			c0-0.92,0.33-1.72,0.99-2.38C252.85,585.82,253.64,585.49,254.56,585.49z M254.56,589.63c0.42,0,0.68-0.26,0.77-0.77
			c0-0.44-0.26-0.7-0.77-0.79c-0.44,0-0.7,0.26-0.79,0.79C253.77,589.28,254.04,589.54,254.56,589.63z"/>
		<path class="st2" d="M280,589.36c0.4,0,0.73,0.14,1.01,0.42s0.42,0.61,0.42,0.99c0,0.4-0.14,0.73-0.42,1.01
			c-0.28,0.28-0.62,0.42-1.01,0.42h-14.1c-0.4,0-0.73-0.14-1.01-0.42c-0.28-0.28-0.42-0.62-0.42-1.01c0-0.38,0.14-0.71,0.42-0.99
			s0.62-0.42,1.01-0.42h1.83v-5.87c0-0.45,0.16-0.84,0.47-1.17c0.31-0.32,0.69-0.48,1.13-0.48c0.44,0,0.81,0.16,1.12,0.48
			c0.31,0.32,0.46,0.71,0.46,1.17v5.87h1.61v-5.87c0-0.45,0.16-0.84,0.47-1.17c0.32-0.32,0.69-0.48,1.13-0.48s0.81,0.16,1.12,0.48
			c0.31,0.32,0.46,0.71,0.46,1.17v5.87H280z M278.98,587.76c-0.44,0-0.81-0.15-1.12-0.46c-0.31-0.31-0.46-0.68-0.46-1.12v-6.51
			c0-0.41-0.14-0.76-0.43-1.04c-0.29-0.29-0.63-0.43-1.04-0.43h-9.2c-0.4,0-0.73-0.14-1-0.42c-0.27-0.28-0.41-0.61-0.41-0.99
			c0-0.4,0.13-0.73,0.41-1.01c0.27-0.28,0.6-0.42,1-0.42h9.81c1.11,0,2.07,0.4,2.86,1.19s1.19,1.75,1.19,2.86v6.78
			c0,0.44-0.16,0.81-0.47,1.12S279.42,587.76,278.98,587.76z"/>
		<path class="st2" d="M293.11,583.93c0.35,0,0.65,0.12,0.9,0.37c0.25,0.25,0.37,0.55,0.37,0.9c0,0.35-0.12,0.66-0.37,0.91
			c-0.25,0.26-0.55,0.38-0.9,0.38h-9.88c-0.35,0-0.65-0.13-0.9-0.38s-0.37-0.56-0.37-0.91c0-0.35,0.12-0.65,0.37-0.9
			c0.25-0.25,0.55-0.37,0.9-0.37h3.52v-0.62h-1.08c-0.92,0-1.72-0.33-2.38-0.98c-0.66-0.65-0.99-1.45-0.99-2.39
			c0-0.66,0.18-1.25,0.53-1.78c-0.47-0.26-0.7-0.65-0.7-1.14c0-0.37,0.13-0.67,0.39-0.92c0.26-0.25,0.56-0.37,0.91-0.37h3.21
			c0.31-0.75,0.82-1.12,1.54-1.12c0.72,0,1.22,0.37,1.52,1.12h3.21c0.35,0,0.66,0.12,0.91,0.37s0.38,0.56,0.38,0.92
			c0,0.5-0.23,0.88-0.7,1.14c0.35,0.53,0.53,1.12,0.53,1.78c0,0.94-0.33,1.73-0.99,2.39c-0.66,0.65-1.45,0.98-2.38,0.98h-1.08v0.62
			H293.11z M296.87,590.07c0.35,0,0.65,0.12,0.9,0.37c0.25,0.25,0.37,0.56,0.37,0.92c0,0.35-0.12,0.65-0.37,0.9
			c-0.25,0.25-0.55,0.37-0.9,0.37h-11.44c-0.82,0-1.52-0.29-2.09-0.86c-0.57-0.57-0.86-1.27-0.86-2.09v-1.34c0-0.4,0.14-0.73,0.42-1
			c0.28-0.27,0.61-0.41,0.99-0.41c0.4,0,0.73,0.14,1.01,0.41c0.28,0.27,0.42,0.61,0.42,1v0.99c0,0.4,0.24,0.64,0.73,0.73H296.87z
			 M286.29,580.74h3.76c0.44,0,0.7-0.26,0.79-0.79c0-0.42-0.26-0.69-0.79-0.79h-3.76c-0.44,0-0.7,0.26-0.79,0.79
			C285.5,580.39,285.76,580.65,286.29,580.74z M298.43,578.69c0.35,0,0.65,0.13,0.9,0.39c0.25,0.26,0.37,0.56,0.37,0.91
			c0,0.35-0.12,0.65-0.37,0.9c-0.25,0.25-0.55,0.37-0.9,0.37h-0.79v5.74c0,0.38-0.14,0.71-0.42,0.99c-0.28,0.28-0.61,0.42-0.99,0.42
			c-0.4,0-0.73-0.14-1.01-0.42c-0.28-0.28-0.42-0.61-0.42-0.99v-10.67c0-0.4,0.14-0.73,0.42-1.01c0.28-0.28,0.62-0.42,1.01-0.42
			c0.38,0,0.71,0.14,0.99,0.42c0.28,0.28,0.42,0.62,0.42,1.01v2.35H298.43z"/>
		<path class="st2" d="M305.29,588.22c-0.4,0-0.73-0.14-1-0.42c-0.27-0.28-0.41-0.62-0.41-1.01v-1.89h-2.95
			c-0.35,0-0.65-0.12-0.9-0.37c-0.25-0.25-0.37-0.56-0.37-0.92c0-0.35,0.12-0.65,0.37-0.9c0.25-0.25,0.55-0.37,0.9-0.37h9.88
			c0.37,0,0.67,0.12,0.92,0.37c0.25,0.25,0.37,0.55,0.37,0.9c0,0.37-0.12,0.67-0.37,0.92c-0.25,0.25-0.56,0.37-0.92,0.37h-4.09v1.89
			c0,0.4-0.14,0.73-0.42,1.01C306.03,588.08,305.69,588.22,305.29,588.22z M309.17,581.95c-0.4,0-0.73-0.14-1-0.42
			c-0.27-0.28-0.41-0.61-0.41-0.99v-1.96c0-0.41-0.25-0.66-0.75-0.75h-5.54c-0.37,0-0.67-0.12-0.92-0.37
			c-0.25-0.25-0.37-0.55-0.37-0.9s0.12-0.66,0.37-0.91c0.25-0.26,0.56-0.39,0.92-0.39h6.16c0.82,0,1.52,0.29,2.09,0.86
			c0.57,0.57,0.86,1.27,0.86,2.09v2.33c0,0.38-0.14,0.71-0.42,0.99C309.88,581.81,309.55,581.95,309.17,581.95z M315.13,590.07
			c0.37,0,0.67,0.12,0.92,0.37c0.25,0.25,0.37,0.56,0.37,0.92c0,0.35-0.12,0.65-0.37,0.9c-0.25,0.25-0.56,0.37-0.92,0.37h-12.01
			c-0.82,0-1.52-0.29-2.09-0.86c-0.57-0.57-0.86-1.27-0.86-2.09v-2.42c0-0.38,0.14-0.71,0.42-0.99s0.61-0.42,0.99-0.42
			c0.4,0,0.73,0.14,1,0.42s0.41,0.61,0.41,0.99v2.07c0,0.4,0.25,0.64,0.75,0.73H315.13z M314.75,588.06c-0.4,0-0.73-0.14-1-0.42
			c-0.27-0.28-0.41-0.61-0.41-0.99v-4.16h-0.81c-0.4,0-0.73-0.14-1.01-0.42c-0.28-0.28-0.42-0.61-0.42-0.99
			c0-0.4,0.14-0.73,0.42-1.01c0.28-0.28,0.62-0.42,1.01-0.42h0.81v-3.32c0-0.4,0.13-0.73,0.41-1.01s0.61-0.42,1-0.42
			c0.4,0,0.73,0.14,1.01,0.42c0.28,0.28,0.42,0.62,0.42,1.01v10.32c0,0.38-0.14,0.71-0.42,0.99
			C315.49,587.92,315.15,588.06,314.75,588.06z"/>
	</g>
	<g class="st1">
		<path class="st2" d="M238.42,602.94c0.48,0,0.91,0.06,1.28,0.19s0.71,0.3,1,0.54l-0.36,0.55c-0.33-0.23-0.64-0.39-0.93-0.48
			c-0.29-0.09-0.62-0.13-0.99-0.13c-0.33,0-0.63,0.06-0.88,0.19c-0.26,0.12-0.47,0.3-0.65,0.52c-0.17,0.22-0.31,0.49-0.4,0.8
			c-0.09,0.31-0.14,0.65-0.14,1.03v0.92c0,0.89,0.19,1.56,0.56,1.99c0.38,0.43,0.9,0.65,1.57,0.65c0.45,0,0.84-0.07,1.15-0.21
			c0.32-0.14,0.59-0.32,0.83-0.53l0.41,0.55c-0.27,0.24-0.59,0.44-0.97,0.61c-0.38,0.17-0.86,0.25-1.43,0.25
			c-0.93,0-1.64-0.29-2.11-0.87c-0.48-0.58-0.72-1.39-0.72-2.44v-0.89c0-1.03,0.24-1.82,0.73-2.38S237.54,602.94,238.42,602.94z"/>
		<path class="st2" d="M247.76,602.94c0.45,0,0.84,0.08,1.19,0.23c0.35,0.15,0.64,0.36,0.88,0.65c0.24,0.28,0.42,0.62,0.55,1.01
			c0.13,0.4,0.19,0.84,0.19,1.33v0.99c0,0.49-0.06,0.94-0.19,1.33s-0.31,0.73-0.55,1.01c-0.24,0.28-0.53,0.5-0.88,0.64
			c-0.35,0.15-0.74,0.23-1.19,0.23s-0.84-0.08-1.19-0.23c-0.35-0.15-0.64-0.36-0.88-0.64c-0.24-0.28-0.42-0.62-0.55-1.01
			s-0.19-0.84-0.19-1.33v-0.99c0-0.49,0.06-0.94,0.18-1.33c0.12-0.4,0.3-0.74,0.54-1.01c0.24-0.28,0.54-0.5,0.88-0.65
			C246.92,603.02,247.31,602.94,247.76,602.94z M247.76,609.74c0.65,0,1.16-0.23,1.54-0.67c0.38-0.45,0.56-1.11,0.56-1.98v-0.87
			c0-0.87-0.19-1.52-0.56-1.97c-0.38-0.45-0.89-0.67-1.54-0.67s-1.16,0.22-1.54,0.67s-0.56,1.11-0.56,1.97v0.87
			c0,0.87,0.19,1.53,0.56,1.98C246.6,609.51,247.11,609.74,247.76,609.74z"/>
		<path class="st2" d="M257.58,609.74c0.63,0,1.09-0.2,1.4-0.6c0.31-0.4,0.47-1.05,0.47-1.95v-4.14h0.69v4.4
			c0,1-0.22,1.74-0.67,2.21c-0.45,0.47-1.08,0.71-1.88,0.71c-0.81,0-1.44-0.24-1.89-0.71c-0.45-0.47-0.67-1.21-0.67-2.21v-4.4h0.69
			v4.14c0,0.9,0.15,1.55,0.46,1.95C256.48,609.54,256.95,609.74,257.58,609.74z"/>
		<path class="st2" d="M264.77,603.05h2.44c0.38,0,0.72,0.05,1.01,0.16s0.53,0.25,0.72,0.43s0.34,0.4,0.43,0.66s0.15,0.53,0.15,0.82
			v0.21c0,0.29-0.05,0.57-0.16,0.82c-0.1,0.25-0.25,0.48-0.45,0.67c-0.2,0.19-0.44,0.34-0.72,0.45c-0.29,0.11-0.61,0.16-0.98,0.16
			h-1.74v2.85h-0.7V603.05z M265.47,603.68v3.1h1.57c0.62,0,1.07-0.13,1.35-0.4s0.42-0.63,0.42-1.08v-0.18
			c0-0.43-0.13-0.77-0.41-1.04c-0.27-0.27-0.69-0.4-1.25-0.4H265.47z"/>
		<path class="st2" d="M276.38,602.94c0.45,0,0.84,0.08,1.19,0.23c0.35,0.15,0.64,0.36,0.88,0.65c0.24,0.28,0.42,0.62,0.55,1.01
			c0.13,0.4,0.19,0.84,0.19,1.33v0.99c0,0.49-0.06,0.94-0.19,1.33s-0.31,0.73-0.55,1.01c-0.24,0.28-0.53,0.5-0.88,0.64
			c-0.35,0.15-0.74,0.23-1.19,0.23s-0.84-0.08-1.19-0.23c-0.35-0.15-0.64-0.36-0.88-0.64c-0.24-0.28-0.42-0.62-0.55-1.01
			s-0.19-0.84-0.19-1.33v-0.99c0-0.49,0.06-0.94,0.18-1.33c0.12-0.4,0.3-0.74,0.54-1.01c0.24-0.28,0.54-0.5,0.88-0.65
			C275.54,603.02,275.93,602.94,276.38,602.94z M276.38,609.74c0.65,0,1.16-0.23,1.54-0.67c0.38-0.45,0.56-1.11,0.56-1.98v-0.87
			c0-0.87-0.19-1.52-0.56-1.97c-0.38-0.45-0.89-0.67-1.54-0.67s-1.16,0.22-1.54,0.67s-0.56,1.11-0.56,1.97v0.87
			c0,0.87,0.19,1.53,0.56,1.98C275.22,609.51,275.73,609.74,276.38,609.74z"/>
		<path class="st2" d="M283.67,603.05h0.83l3.31,5.64c0.06,0.1,0.11,0.2,0.16,0.29s0.11,0.22,0.18,0.38v-6.31h0.67v7.21h-0.83
			l-3.32-5.66c-0.06-0.11-0.11-0.2-0.16-0.29c-0.05-0.09-0.1-0.21-0.17-0.36v6.31h-0.67V603.05z"/>
	</g>
</g>
</svg>
