<svg xmlns="http://www.w3.org/2000/svg" width="15" height="15" viewBox="0 0 15 15">
  <g id="Icon_feather-log-out" data-name="Icon feather-log-out" transform="translate(-3.5 -3.5)">
    <path id="패스_10" data-name="패스 10" d="M8.833,18.5H5.944A2.447,2.447,0,0,1,3.5,16.056V5.944A2.447,2.447,0,0,1,5.944,3.5H8.833a1,1,0,0,1,0,2H5.944a.445.445,0,0,0-.444.444V16.056a.445.445,0,0,0,.444.444H8.833a1,1,0,0,1,0,2Z" fill="#959595"/>
    <path id="패스_11" data-name="패스 11" d="M24,18.722a1,1,0,0,1-.707-1.707l2.9-2.9-2.9-2.9a1,1,0,0,1,1.414-1.414L28.318,13.4a1,1,0,0,1,0,1.414l-3.611,3.611A1,1,0,0,1,24,18.722Z" transform="translate(-10.111 -3.111)" fill="#959595"/>
    <path id="패스_12" data-name="패스 12" d="M22.167,19H13.5a1,1,0,0,1,0-2h8.667a1,1,0,0,1,0,2Z" transform="translate(-4.667 -7)" fill="#959595"/>
  </g>
</svg>
