<svg xmlns="http://www.w3.org/2000/svg" width="19.257" height="19.257" viewBox="0 0 19.257 19.257">
  <g id="그룹_2" data-name="그룹 2" transform="translate(9.628 0.5) rotate(45)">
    <path id="패스_1" data-name="패스 1" d="M0,18.757a.5.5,0,0,1-.5-.5V0A.5.5,0,0,1,0-.5.5.5,0,0,1,.5,0V18.257A.5.5,0,0,1,0,18.757Z" transform="translate(12.909 0) rotate(45)" fill="#cfcfcf"/>
    <path id="패스_2" data-name="패스 2" d="M18.257.5H0A.5.5,0,0,1-.5,0,.5.5,0,0,1,0-.5H18.257a.5.5,0,0,1,.5.5A.5.5,0,0,1,18.257.5Z" transform="translate(0 0) rotate(45)" fill="#cfcfcf"/>
  </g>
</svg>
